<svg width="21" height="23" viewBox="0 0 21 23" fill="none" xmlns="http://www.w3.org/2000/svg">
<path d="M17.85 2.3H15.75V1.15C15.75 0.845001 15.6394 0.552494 15.4425 0.336827C15.2455 0.12116 14.9785 0 14.7 0C14.4215 0 14.1545 0.12116 13.9575 0.336827C13.7606 0.552494 13.65 0.845001 13.65 1.15V2.3H7.35V1.15C7.35 0.845001 7.23937 0.552494 7.04246 0.336827C6.84555 0.12116 6.57848 0 6.3 0C6.02152 0 5.75445 0.12116 5.55754 0.336827C5.36062 0.552494 5.25 0.845001 5.25 1.15V2.3H3.15C2.31457 2.3 1.51335 2.66348 0.922614 3.31048C0.331874 3.95748 0 4.835 0 5.75V19.55C0 20.465 0.331874 21.3425 0.922614 21.9895C1.51335 22.6365 2.31457 23 3.15 23H17.85C18.6854 23 19.4866 22.6365 20.0774 21.9895C20.6681 21.3425 21 20.465 21 19.55V5.75C21 4.835 20.6681 3.95748 20.0774 3.31048C19.4866 2.66348 18.6854 2.3 17.85 2.3ZM18.9 19.55C18.9 19.855 18.7894 20.1475 18.5925 20.3632C18.3955 20.5788 18.1285 20.7 17.85 20.7H3.15C2.87152 20.7 2.60445 20.5788 2.40754 20.3632C2.21062 20.1475 2.1 19.855 2.1 19.55V11.5H18.9V19.55ZM18.9 9.2H2.1V5.75C2.1 5.445 2.21062 5.15249 2.40754 4.93683C2.60445 4.72116 2.87152 4.6 3.15 4.6H5.25V5.75C5.25 6.055 5.36062 6.34751 5.55754 6.56317C5.75445 6.77884 6.02152 6.9 6.3 6.9C6.57848 6.9 6.84555 6.77884 7.04246 6.56317C7.23937 6.34751 7.35 6.055 7.35 5.75V4.6H13.65V5.75C13.65 6.055 13.7606 6.34751 13.9575 6.56317C14.1545 6.77884 14.4215 6.9 14.7 6.9C14.9785 6.9 15.2455 6.77884 15.4425 6.56317C15.6394 6.34751 15.75 6.055 15.75 5.75V4.6H17.85C18.1285 4.6 18.3955 4.72116 18.5925 4.93683C18.7894 5.15249 18.9 5.445 18.9 5.75V9.2Z" fill="#002134"/>
</svg>
