<svg width="22" height="23" viewBox="0 0 22 23" fill="none" xmlns="http://www.w3.org/2000/svg">
<path d="M18.7 2.3H16.5V1.15C16.5 0.845001 16.3841 0.552494 16.1778 0.336827C15.9715 0.12116 15.6917 0 15.4 0C15.1083 0 14.8285 0.12116 14.6222 0.336827C14.4159 0.552494 14.3 0.845001 14.3 1.15V2.3H7.7V1.15C7.7 0.845001 7.58411 0.552494 7.37782 0.336827C7.17153 0.12116 6.89174 0 6.6 0C6.30826 0 6.02847 0.12116 5.82218 0.336827C5.61589 0.552494 5.5 0.845001 5.5 1.15V2.3H3.3C2.42479 2.3 1.58542 2.66348 0.966548 3.31048C0.347678 3.95748 0 4.835 0 5.75V19.55C0 20.465 0.347678 21.3425 0.966548 21.9895C1.58542 22.6365 2.42479 23 3.3 23H18.7C19.5752 23 20.4146 22.6365 21.0335 21.9895C21.6523 21.3425 22 20.465 22 19.55V5.75C22 4.835 21.6523 3.95748 21.0335 3.31048C20.4146 2.66348 19.5752 2.3 18.7 2.3ZM19.8 19.55C19.8 19.855 19.6841 20.1475 19.4778 20.3632C19.2715 20.5788 18.9917 20.7 18.7 20.7H3.3C3.00826 20.7 2.72847 20.5788 2.52218 20.3632C2.31589 20.1475 2.2 19.855 2.2 19.55V11.5H19.8V19.55ZM19.8 9.2H2.2V5.75C2.2 5.445 2.31589 5.15249 2.52218 4.93683C2.72847 4.72116 3.00826 4.6 3.3 4.6H5.5V5.75C5.5 6.055 5.61589 6.34751 5.82218 6.56317C6.02847 6.77884 6.30826 6.9 6.6 6.9C6.89174 6.9 7.17153 6.77884 7.37782 6.56317C7.58411 6.34751 7.7 6.055 7.7 5.75V4.6H14.3V5.75C14.3 6.055 14.4159 6.34751 14.6222 6.56317C14.8285 6.77884 15.1083 6.9 15.4 6.9C15.6917 6.9 15.9715 6.77884 16.1778 6.56317C16.3841 6.34751 16.5 6.055 16.5 5.75V4.6H18.7C18.9917 4.6 19.2715 4.72116 19.4778 4.93683C19.6841 5.15249 19.8 5.445 19.8 5.75V9.2Z" fill="#002134"/>
</svg>
