<svg width="52" height="53" viewBox="0 0 52 53" fill="none" xmlns="http://www.w3.org/2000/svg">
<rect x="0.365234" y="0.710938" width="51.5781" height="51.5781" rx="12" fill="#F4E7DB"/>
<path fill-rule="evenodd" clip-rule="evenodd" d="M26.5316 12.0276C26.9331 12.1579 27.1646 12.3897 27.2767 12.768C27.34 12.9798 27.3508 13.4723 27.3508 16.043C27.3508 19.4484 27.3544 19.4049 27.0072 19.7525C26.5425 20.216 25.4575 20.216 24.9928 19.7525C24.6456 19.4049 24.6492 19.4484 24.6492 16.043C24.6492 12.7481 24.6546 12.6902 24.9222 12.3716C25.1465 12.1054 25.387 12.0167 25.9277 12.0022C26.1935 11.995 26.4647 12.0059 26.5316 12.0276ZM35.4882 15.6049C35.774 15.7353 36.1953 16.148 36.3418 16.4413C36.4937 16.7473 36.5009 17.0876 36.3635 17.3918C36.2297 17.6905 32.0271 21.9123 31.6962 22.0807C31.2278 22.3215 30.7468 22.2038 30.2622 21.7295C29.7848 21.2624 29.6582 20.7555 29.9005 20.283C30.0687 19.9517 34.2857 15.7443 34.5841 15.6104C34.859 15.4854 35.2206 15.4836 35.4882 15.6049ZM17.2242 15.6339C17.4467 15.7371 17.8264 16.0937 19.6383 17.9132C21.3038 19.5842 21.8119 20.1237 21.8933 20.3011C22.0307 20.5998 22.0289 20.9456 21.8915 21.2389C21.7649 21.5104 21.349 21.9377 21.0687 22.0843C20.7848 22.2328 20.3635 22.231 20.0687 22.0807C19.7667 21.925 15.5895 17.743 15.434 17.4407C15.2839 17.1474 15.2821 16.7237 15.4286 16.4431C15.5769 16.1589 15.9602 15.7823 16.2495 15.6357C16.5732 15.471 16.8716 15.471 17.2242 15.6339ZM39.2025 24.704C39.736 24.8723 40 25.2978 40 25.9839C39.9982 26.6845 39.7378 27.1046 39.2043 27.2639C38.991 27.3272 38.5154 27.3381 35.9313 27.3381C33.2387 27.3381 32.8788 27.329 32.6582 27.2566C32.3327 27.1516 32.0687 26.8873 31.9638 26.5614C31.8083 26.0817 31.8861 25.401 32.1338 25.0642C32.1881 24.9918 32.3436 24.8705 32.4792 24.7963L32.7269 24.6587L35.8608 24.6478C38.3834 24.6406 39.0362 24.6515 39.2025 24.704ZM19.2278 24.6786C19.4503 24.7329 19.7577 24.9194 19.8662 25.066C20.1139 25.401 20.1917 26.0817 20.0362 26.5614C19.9313 26.8873 19.6673 27.1516 19.3418 27.2566C19.1212 27.329 18.7613 27.3381 16.0687 27.3381C13.4846 27.3381 13.009 27.3272 12.7957 27.2639C12.2622 27.1046 12.0018 26.6845 12 25.9839C12 25.2869 12.2658 24.8687 12.8174 24.7022C13.0036 24.646 13.5877 24.6352 16.0615 24.6388C17.7215 24.6424 19.1465 24.6605 19.2278 24.6786ZM31.6908 30.1171C31.9132 30.2202 32.2929 30.5769 34.1049 32.3963C35.7703 34.0673 36.2785 34.6068 36.3599 34.7843C36.4973 35.083 36.4955 35.4288 36.358 35.722C36.2315 35.9936 35.8156 36.4208 35.5353 36.5675C35.2514 36.7159 34.83 36.7141 34.5353 36.5639C34.2333 36.4082 30.0561 32.2262 29.9005 31.9238C29.7505 31.6305 29.7486 31.2069 29.8951 30.9263C30.0434 30.6421 30.4268 30.2655 30.7161 30.1189C31.0398 29.9541 31.3382 29.9541 31.6908 30.1171ZM21.0217 30.0881C21.3074 30.2184 21.7288 30.6312 21.8752 30.9245C22.0271 31.2304 22.0344 31.5708 21.8969 31.8749C21.7631 32.1737 17.5606 36.3955 17.2297 36.5639C16.7613 36.8047 16.2803 36.687 15.7957 36.2127C15.3183 35.7456 15.1917 35.2387 15.434 34.7661C15.6022 34.4348 19.8192 30.2275 20.1175 30.0935C20.3924 29.9686 20.7541 29.9668 21.0217 30.0881ZM26.4611 31.9184C26.6872 31.9763 26.9928 32.1628 27.0995 32.3076C27.349 32.6444 27.3508 32.6679 27.3508 35.923C27.3508 38.5155 27.34 38.9916 27.2767 39.2052C27.1175 39.7393 26.6962 40 26 40C25.3038 40 24.8825 39.7393 24.7233 39.2052C24.6112 38.8214 24.613 33.001 24.7269 32.6661C24.8354 32.3475 24.9602 32.1954 25.2405 32.0433C25.4394 31.9347 25.5552 31.9075 25.8969 31.8949C26.1266 31.8858 26.3797 31.8967 26.4611 31.9184Z" fill="#002134" stroke="#002134" stroke-width="0.2"/>
</svg>
