<svg width="28" height="29" viewBox="0 0 28 29" fill="none" xmlns="http://www.w3.org/2000/svg">
<path fill-rule="evenodd" clip-rule="evenodd" d="M13.5581 9.32227C10.8002 9.32227 8.56445 11.558 8.56445 14.3159C8.56445 17.0738 10.8002 19.3095 13.5581 19.3095C16.316 19.3095 18.5517 17.0738 18.5517 14.3159C18.5517 11.558 16.316 9.32227 13.5581 9.32227ZM10.5619 14.3159C10.5619 12.6612 11.9034 11.3197 13.5581 11.3197C15.2127 11.3197 16.5542 12.6612 16.5542 14.3159C16.5542 15.9706 15.2127 17.312 13.5581 17.312C11.9034 17.312 10.5619 15.9706 10.5619 14.3159Z" fill="#002134"/>
<path fill-rule="evenodd" clip-rule="evenodd" d="M13.5199 5.65646e-07C12.9281 -1.27506e-05 12.434 -1.28135e-05 12.0284 0.0276584C11.6061 0.0564748 11.2073 0.118582 10.8206 0.27875C9.92331 0.650421 9.21041 1.36331 8.83874 2.2606C8.64525 2.72773 8.59285 3.22004 8.57284 3.75514C8.55675 4.18529 8.33967 4.54419 8.01929 4.72916C7.69893 4.91412 7.27958 4.92267 6.89901 4.72153C6.42559 4.4713 5.97304 4.27052 5.47173 4.20452C4.50883 4.07775 3.535 4.3387 2.76448 4.92994C2.43242 5.18473 2.1792 5.49909 1.94313 5.85037C1.71634 6.18782 1.46931 6.61573 1.17338 7.1283L1.13976 7.18654C0.843818 7.6991 0.596775 8.12698 0.417924 8.4921C0.231749 8.8722 0.0861084 9.24868 0.0314717 9.66364C-0.0952993 10.6266 0.165647 11.6004 0.756876 12.371C1.06464 12.7719 1.46473 13.0635 1.91807 13.3484C2.28264 13.5774 2.48496 13.9449 2.48493 14.315C2.48492 14.6849 2.2826 15.0525 1.91807 15.2815C1.46468 15.5663 1.06455 15.858 0.756756 16.259C0.165513 17.0295 -0.0954192 18.0033 0.0313385 18.9662C0.0859752 19.3812 0.231615 19.7578 0.41779 20.1378C0.596641 20.5029 0.843685 20.9308 1.13961 21.4433L1.17325 21.5017C1.46918 22.0142 1.71621 22.4421 1.943 22.7795C2.17907 23.1308 2.43229 23.4452 2.76435 23.6999C3.53487 24.2912 4.5087 24.5522 5.4716 24.4254C5.97288 24.3593 6.4254 24.1587 6.8988 23.9084C7.27942 23.7072 7.69883 23.7158 8.01923 23.9009C8.33965 24.0858 8.55675 24.4447 8.57284 24.8749C8.59285 25.41 8.64527 25.9023 8.83874 26.3694C9.21041 27.2667 9.92331 27.9796 10.8206 28.3513C11.2073 28.5115 11.6061 28.5735 12.0284 28.6023C12.434 28.63 12.9281 28.63 13.5199 28.63H13.5872C14.1791 28.63 14.6731 28.63 15.0789 28.6023C15.5011 28.5735 15.8999 28.5115 16.2866 28.3513C17.1839 27.9796 17.8968 27.2667 18.2685 26.3694C18.462 25.9023 18.5143 25.41 18.5343 24.8748C18.5504 24.4447 18.7675 24.0858 19.0879 23.9007C19.4082 23.7158 19.8277 23.7072 20.2083 23.9083C20.6817 24.1585 21.1342 24.3593 21.6355 24.4253C22.5984 24.552 23.5722 24.2912 24.3427 23.6999C24.6748 23.445 24.928 23.1308 25.1641 22.7795C25.3908 22.4421 25.6379 22.0142 25.9338 21.5017L25.9674 21.4433C26.2633 20.9308 26.5105 20.5028 26.6893 20.1377C26.8755 19.7576 27.021 19.3812 27.0758 18.9662C27.2025 18.0032 26.9415 17.0294 26.3503 16.2589C26.0425 15.8578 25.6424 15.5663 25.1891 15.2815C24.8245 15.0525 24.6222 14.6849 24.6222 14.3149C24.6222 13.9449 24.8245 13.5775 25.189 13.3485C25.6425 13.0637 26.0427 12.7722 26.3504 12.371C26.9417 11.6005 27.2027 10.6266 27.0759 9.66373C27.0212 9.24877 26.8756 8.87229 26.6895 8.49219C26.5106 8.1271 26.2636 7.69925 25.9676 7.18673L25.934 7.12844C25.638 6.61586 25.391 6.18792 25.1642 5.85047C24.9281 5.49918 24.675 5.18483 24.3429 4.93002C23.5724 4.33879 22.5986 4.07784 21.6355 4.20462C21.1343 4.27061 20.6818 4.47137 20.2084 4.72158C19.8278 4.92275 19.4084 4.91419 19.088 4.7292C18.7676 4.54422 18.5504 4.18527 18.5343 3.75507C18.5143 3.21998 18.462 2.72771 18.2685 2.2606C17.8968 1.36331 17.1839 0.650421 16.2866 0.27875C15.8999 0.118582 15.5011 0.0564748 15.0789 0.0276584C14.6731 -1.28135e-05 14.1791 -1.27506e-05 13.5872 5.65646e-07H13.5199ZM11.5849 2.12415C11.6877 2.08159 11.8438 2.04235 12.1643 2.02047C12.4939 1.99799 12.9195 1.99744 13.5536 1.99744C14.1877 1.99744 14.6133 1.99799 14.9428 2.02047C15.2634 2.04235 15.4195 2.08159 15.5222 2.12415C15.93 2.29309 16.2541 2.61713 16.423 3.02499C16.4764 3.15364 16.5205 3.3542 16.5383 3.82972C16.5777 4.88488 17.1224 5.90083 18.0893 6.45903C19.056 7.01725 20.2083 6.98093 21.1418 6.48753C21.5624 6.26518 21.7583 6.20315 21.8963 6.18497C22.334 6.12735 22.7766 6.24596 23.1268 6.5147C23.2151 6.5824 23.3271 6.69794 23.5063 6.96463C23.6906 7.23877 23.9038 7.60706 24.2209 8.15622C24.5379 8.7054 24.7503 9.07422 24.8956 9.37084C25.0369 9.65939 25.081 9.81419 25.0955 9.92445C25.1532 10.3621 25.0345 10.8048 24.7658 11.155C24.681 11.2655 24.5294 11.404 24.1263 11.6572C23.2324 12.219 22.6249 13.1986 22.6248 14.3149C22.6248 15.4313 23.2323 16.411 24.1263 16.9728C24.5293 17.2259 24.6808 17.3644 24.7656 17.475C25.0344 17.8252 25.153 18.2678 25.0954 18.7055C25.0808 18.8158 25.0368 18.9705 24.8955 19.2591C24.7502 19.5556 24.5378 19.9245 24.2207 20.4736C23.9037 21.0228 23.6905 21.3911 23.5062 21.6653C23.327 21.9319 23.215 22.0475 23.1267 22.1151C22.7765 22.384 22.3338 22.5025 21.8961 22.445C21.7582 22.4267 21.5623 22.3647 21.1416 22.1424C20.2082 21.6489 19.0559 21.6127 18.089 22.1709C17.1224 22.7292 16.5777 23.7451 16.5383 24.8002C16.5205 25.2758 16.4764 25.4763 16.423 25.6051C16.2541 26.0128 15.93 26.3369 15.5222 26.5059C15.4195 26.5484 15.2634 26.5877 14.9428 26.6095C14.6133 26.632 14.1877 26.6326 13.5536 26.6326C12.9195 26.6326 12.4939 26.632 12.1643 26.6095C11.8438 26.5877 11.6877 26.5484 11.5849 26.5059C11.1772 26.3369 10.8531 26.0128 10.6841 25.6051C10.6308 25.4763 10.5867 25.2758 10.5689 24.8002C10.5294 23.7452 9.9848 22.7292 9.01795 22.1709C8.05111 21.6127 6.89896 21.6491 5.96543 22.1424C5.54473 22.3648 5.34896 22.4269 5.21089 22.445C4.7732 22.5026 4.33055 22.384 3.98032 22.1153C3.89209 22.0476 3.78006 21.932 3.60083 21.6653C3.4166 21.3913 3.20334 21.0229 2.88628 20.4738C2.56921 19.9246 2.35689 19.5558 2.2116 19.2592C2.07026 18.9706 2.02621 18.8158 2.0117 18.7055C1.95408 18.2678 2.07268 17.8252 2.34143 17.475C2.4262 17.3646 2.57781 17.2259 2.98075 16.9728C3.87478 16.4111 4.48232 15.4314 4.48237 14.3151C4.48244 13.1986 3.87487 12.2189 2.98076 11.6571C2.57792 11.4039 2.42632 11.2654 2.34155 11.1549C2.07282 10.8047 1.95421 10.362 2.01183 9.92436C2.02634 9.81411 2.07039 9.6593 2.21173 9.37076C2.35703 9.07413 2.56934 8.7053 2.8864 8.15613C3.20348 7.60696 3.41672 7.23868 3.60097 6.96453C3.78019 6.69786 3.89222 6.5823 3.98044 6.51462C4.33069 6.24587 4.77333 6.12726 5.21101 6.18488C5.34909 6.20306 5.54488 6.26508 5.96563 6.48748C6.8991 6.98086 8.0512 7.01717 9.018 6.45899C9.98482 5.90082 10.5294 4.8849 10.5689 3.82979C10.5867 3.35422 10.6308 3.15366 10.6841 3.02499C10.8531 2.61713 11.1772 2.29309 11.5849 2.12415Z" fill="#002134"/>
</svg>
