<svg width="30" height="30" viewBox="0 0 30 30" fill="none" xmlns="http://www.w3.org/2000/svg">
<path d="M4.25 10.2256V22.2418M11 10.2256V22.2418M18.5 10.2256V22.2418M25.25 10.2256V22.2418M1.25 24.6451V25.8467C1.25 26.688 1.25 27.1086 1.41348 27.4299C1.5573 27.7126 1.78678 27.9424 2.06902 28.0863C2.38988 28.25 2.80992 28.25 3.65 28.25H25.85C26.6901 28.25 27.1102 28.25 27.431 28.0863C27.7133 27.9424 27.9427 27.7126 28.0865 27.4299C28.25 27.1086 28.25 26.688 28.25 25.8467V24.6451C28.25 23.804 28.25 23.3832 28.0865 23.062C27.9427 22.7794 27.7133 22.5496 27.431 22.4056C27.1102 22.2418 26.6901 22.2418 25.85 22.2418H3.65C2.80992 22.2418 2.38988 22.2418 2.06902 22.4056C1.78678 22.5496 1.5573 22.7794 1.41348 23.062C1.25 23.3832 1.25 23.804 1.25 24.6451ZM14.2293 1.32921L3.12937 3.79924C2.45878 3.94845 2.12348 4.02307 1.87319 4.20361C1.65244 4.36287 1.4791 4.57927 1.37173 4.82962C1.25 5.11343 1.25 5.45738 1.25 6.14525V7.82232C1.25 8.66354 1.25 9.08415 1.41348 9.40545C1.5573 9.68808 1.78678 9.91786 2.06902 10.0619C2.38988 10.2256 2.80992 10.2256 3.65 10.2256H25.85C26.6901 10.2256 27.1102 10.2256 27.431 10.0619C27.7133 9.91786 27.9427 9.68808 28.0865 9.40545C28.25 9.08415 28.25 8.66354 28.25 7.82232V6.14527C28.25 5.45738 28.25 5.11344 28.1282 4.82962C28.021 4.57927 27.8475 4.36287 27.6267 4.20361C27.3765 4.02307 27.0413 3.94845 26.3707 3.79924L15.2707 1.32921C15.0764 1.28598 14.9792 1.26437 14.8811 1.25575C14.7938 1.24808 14.7062 1.24808 14.6189 1.25575C14.5208 1.26437 14.4236 1.28598 14.2293 1.32921Z" stroke="#F59174" stroke-width="2.5" stroke-linecap="round" stroke-linejoin="round"/>
</svg>
