<svg width="26" height="26" viewBox="0 0 26 26" fill="none" xmlns="http://www.w3.org/2000/svg">
<path d="M13 0C5.8186 0 0 5.82255 0 13C0 20.1814 5.82255 26 13 26C20.1775 26 26 20.1814 26 13C26 5.8186 20.1775 0 13 0ZM13 23.1124C7.42237 23.1124 2.88757 18.5776 2.88757 13C2.88757 7.42237 7.42237 2.88757 13 2.88757C18.5776 2.88757 23.1124 7.42237 23.1124 13C23.1124 18.5776 18.5737 23.1124 13 23.1124Z" fill="#002134"/>
<path d="M12.032 14.764L8.16871 11.3036L6.24103 13.4525L12.2887 18.8721L19.881 10.1344L17.7005 8.23828L12.032 14.764Z" fill="#002134"/>
</svg>
