<svg width="28" height="28" viewBox="0 0 28 28" fill="none" xmlns="http://www.w3.org/2000/svg">
<path d="M13.6992 0C6.13155 0 0 6.13572 0 13.6992C0 21.2669 6.13572 27.3984 13.6992 27.3984C21.2627 27.3984 27.3984 21.2669 27.3984 13.6992C27.3984 6.13156 21.2627 0 13.6992 0ZM13.6992 24.3555C7.82158 24.3555 3.04288 19.5769 3.04288 13.6992C3.04288 7.82158 7.82158 3.04288 13.6992 3.04288C19.5768 3.04288 24.3556 7.82158 24.3556 13.6992C24.3556 19.5769 19.5727 24.3555 13.6992 24.3555Z" fill="#002134"/>
<path d="M8.85547 8.85156L18.9192 18.9153" stroke="#002134" stroke-width="3"/>
<path d="M18.9191 8.85156L8.85536 18.9153" stroke="#002134" stroke-width="3"/>
</svg>
