<svg width="30" height="26" viewBox="0 0 30 26" fill="none" xmlns="http://www.w3.org/2000/svg">
<path d="M24.1123 8.41211L28.5598 12.8596L24.1123 17.3071" stroke="#E86F70" stroke-width="2" stroke-linecap="round" stroke-linejoin="round"/>
<path d="M28.5636 12.8594H7.80859" stroke="#E86F70" stroke-width="2" stroke-linecap="round" stroke-linejoin="round"/>
<path d="M18.1825 18.79V23.2375C18.1825 23.6307 18.0263 24.0078 17.7483 24.2858C17.4703 24.5638 17.0932 24.72 16.7 24.72H3.3575C2.96432 24.72 2.58724 24.5638 2.30921 24.2858C2.03119 24.0078 1.875 23.6307 1.875 23.2375V2.4825C1.875 2.08932 2.03119 1.71224 2.30921 1.43421C2.58724 1.15619 2.96432 1 3.3575 1H16.7C17.0932 1 17.4703 1.15619 17.7483 1.43421C18.0263 1.71224 18.1825 2.08932 18.1825 2.4825V6.93" stroke="#E86F70" stroke-width="2" stroke-linecap="round" stroke-linejoin="round"/>
</svg>
