<svg width="24" height="26" viewBox="0 0 24 26" fill="none" xmlns="http://www.w3.org/2000/svg">
<path d="M22.5209 7.18844C21.3961 5.23994 18.9444 5.2307 16.4783 5.89431C16.168 3.89884 15.1937 1 12.2385 1C9.98894 1 8.75618 3.11303 8.09716 5.57903C6.21485 4.8543 3.21251 4.24727 1.73482 6.81156C0.610241 8.76006 1.8244 10.887 3.63138 12.6893C2.05971 13.9555 0.0360218 16.2518 1.51376 18.8116C2.63857 20.7601 5.09027 20.7693 7.55144 20.1057C7.86668 22.1011 8.84069 25 11.7962 25C14.0455 25 15.2785 22.8824 15.9372 20.4164C17.8244 21.1457 20.8219 21.7481 22.2996 19.1884C23.4244 17.2445 22.2102 15.1177 20.4033 13.3153C21.9749 12.0445 23.9983 9.74814 22.5209 7.18844ZM20.9583 18.5859C19.9795 20.2753 17.6502 19.7527 16.2054 19.221C16.5255 17.5459 16.6243 15.8327 16.6243 14.6094H15.749C15.749 15.6871 15.5749 17.2587 15.1937 18.7881C15.0949 19.1788 14.982 19.5648 14.855 19.9412C14.2008 21.9034 13.156 23.5363 11.6503 23.5363C9.69738 23.5363 8.98207 21.2587 8.72308 19.7436C10.3373 19.1833 11.8667 18.4118 12.9255 17.7955L12.4878 17.0377C11.5561 17.574 10.1066 18.2096 8.59146 18.6425C8.2008 18.7555 7.81019 18.8544 7.41954 18.9293C5.39608 19.3438 3.46207 19.2588 2.70907 17.9504C1.73482 16.2611 3.34441 14.506 4.5303 13.5175C5.82443 14.6329 7.25477 15.574 8.31846 16.1857L8.75618 15.4284C7.8244 14.8916 6.54888 13.9504 5.41497 12.8493C5.12796 12.5717 4.85018 12.285 4.5866 11.9881C3.21251 10.4399 2.32305 8.72247 3.07601 7.41414C4.0503 5.72477 6.37957 6.24733 7.82444 6.77903C7.50438 8.45411 7.40552 10.1673 7.40552 11.3907H8.2856C8.2856 10.313 8.45955 8.74131 8.84069 7.21192C8.93951 6.82127 9.05257 6.43066 9.17965 6.0543C9.83383 4.09202 10.8784 2.46377 12.3843 2.46377C14.3373 2.46377 15.0525 4.74137 15.3113 6.25652C13.6974 6.81667 12.1631 7.58833 11.1042 8.20459L11.5466 8.96237C12.4737 8.42613 13.9232 7.7905 15.4432 7.35761C15.829 7.24455 16.2196 7.14573 16.6102 7.07083C18.6385 6.65627 20.5725 6.7413 21.3255 8.04967C22.2995 9.739 20.6902 11.494 19.5043 12.4825C18.2102 11.3672 16.7749 10.426 15.7161 9.81437L15.2784 10.5717C16.2054 11.1085 17.4855 12.0497 18.6148 13.1508C18.9066 13.4283 19.1842 13.7202 19.4478 14.0165C20.8219 15.5602 21.7113 17.2775 20.9583 18.5859Z" fill="#002134" stroke="#002134" stroke-width="0.5"/>
<path d="M12.0184 11.3203C11.087 11.3203 10.332 12.0749 10.332 13.0064C10.332 13.9379 11.0871 14.693 12.0184 14.693C12.9495 14.693 13.7045 13.9379 13.7045 13.0064C13.7045 12.0749 12.9495 11.3203 12.0184 11.3203Z" fill="#002134" stroke="#002134" stroke-width="0.5"/>
</svg>
