<svg width="24" height="24" viewBox="0 0 24 24" fill="none" xmlns="http://www.w3.org/2000/svg">
<path d="M11.5769 15.2353V12.6471M11.5769 15.2353V17.8235M11.5769 15.2353H19.5096C20.97 15.2353 22.1538 14.0765 22.1538 12.6471M11.5769 15.2353H3.64423C2.18386 15.2353 1 14.0765 1 12.6471M22.1538 12.6471V20.4118C22.1538 21.8412 20.97 23 19.5096 23H3.64423C2.18386 23 1 21.8412 1 20.4118V12.6471M22.1538 12.6471V7.47059C22.1538 6.04114 20.97 4.88235 19.5096 4.88235H3.64423C2.18386 4.88235 1 6.04114 1 7.47059V12.6471M15.5433 4.88235V3.58824C15.5433 2.15879 14.3594 1 12.899 1H10.2548C8.79444 1 7.61058 2.15879 7.61058 3.58824V4.88235" stroke="#002134" stroke-width="2" stroke-linecap="round" stroke-linejoin="round"/>
</svg>
