<svg width="24" height="22" viewBox="0 0 24 22" fill="none" xmlns="http://www.w3.org/2000/svg">
<path d="M13.1422 12.1963V21.9555H22.2901C22.5934 21.9555 22.8842 21.827 23.0987 21.5983C23.3131 21.3695 23.4336 21.0593 23.4336 20.7358V12.1963H13.1422ZM1.70732 0C1.40405 0 1.1132 0.128509 0.898756 0.357257C0.684311 0.586005 0.563837 0.896254 0.563837 1.21975V9.75679H10.8552V0H1.70732Z" fill="#002134" fill-opacity="0.6"/>
<path d="M0.564076 20.7348V12.1953H10.8555V21.9545H1.70756C1.40429 21.9545 1.11344 21.826 0.898995 21.5973C0.68455 21.3685 0.564076 21.0583 0.564076 20.7348Z" fill="#002134"/>
<path d="M13.1422 9.75679V0H22.2901C22.5934 0 22.8842 0.128509 23.0987 0.357257C23.3131 0.586005 23.4336 0.896254 23.4336 1.21975V9.75679H13.1422Z" fill="#002134"/>
</svg>
