<svg width="16" height="16" viewBox="0 0 16 16" fill="none" xmlns="http://www.w3.org/2000/svg">
<path d="M1.08008 14.5721H14.4254M1.08008 14.5721V11.2293L7.75272 4.54374M1.08008 14.5721H4.4164L11.089 7.88652M7.75272 4.54374L10.1454 2.1464L10.1469 2.14498C10.4762 1.81498 10.6411 1.64969 10.8313 1.58778C10.9989 1.53324 11.1793 1.53324 11.3469 1.58778C11.5369 1.64965 11.7017 1.81475 12.0305 2.14428L13.4817 3.59823C13.812 3.92918 13.9772 4.09474 14.0391 4.28555C14.0936 4.45339 14.0935 4.63419 14.0391 4.80204C13.9773 4.99271 13.8123 5.15801 13.4824 5.48849L13.4817 5.4892L11.089 7.88652M7.75272 4.54374L11.089 7.88652" stroke="#002134" stroke-width="1.5" stroke-linecap="round" stroke-linejoin="round"/>
</svg>
