<svg width="23" height="22" viewBox="0 0 23 22" fill="none" xmlns="http://www.w3.org/2000/svg">
<path d="M6.15396 12.7645H17.2185M6.15396 12.7645V10.1123C6.15396 9.49339 6.15396 9.18397 6.27455 8.94759C6.38064 8.73962 6.54991 8.57054 6.7581 8.46468C6.99478 8.34422 7.30462 8.34422 7.92429 8.34422H15.4482C16.0679 8.34422 16.3777 8.34422 16.6144 8.46468C16.8226 8.57054 16.9918 8.73962 17.0979 8.94759C17.2185 9.18397 17.2185 9.49339 17.2185 10.1123V12.7645M6.15396 12.7645V17.1848V20.5M17.2185 12.7645V17.1848V20.5M18.7084 4.11543L14.0613 1.79478C13.1905 1.35988 12.7551 1.14244 12.2983 1.05685C11.8938 0.981051 11.4787 0.981051 11.0741 1.05685C10.6174 1.14244 10.182 1.35988 9.31109 1.79478L4.66398 4.11543C3.59827 4.64762 3.06541 4.91372 2.6761 5.31071C2.33183 5.66178 2.07 6.08488 1.90956 6.54942C1.72815 7.07474 1.72815 7.66976 1.72815 8.85974V18.7319C1.72815 19.3507 1.72815 19.6601 1.84874 19.8966C1.95483 20.1045 2.12409 20.2736 2.33228 20.3795C2.56897 20.5 2.87881 20.5 3.49847 20.5H19.874C20.4937 20.5 20.8035 20.5 21.0402 20.3795C21.2484 20.2736 21.4176 20.1045 21.5237 19.8966C21.6443 19.6601 21.6443 19.3507 21.6443 18.7319V8.85974C21.6443 7.66976 21.6443 7.07474 21.4628 6.54942C21.3024 6.08488 21.0406 5.66178 20.6964 5.31071C20.307 4.91372 19.7742 4.64762 18.7084 4.11543Z" stroke="#002134" stroke-width="1.8" stroke-linecap="round" stroke-linejoin="round"/>
</svg>
