<svg width="29" height="29" viewBox="0 0 29 29" fill="none" xmlns="http://www.w3.org/2000/svg">
<path fill-rule="evenodd" clip-rule="evenodd" d="M14.6316 0.129142C15.0331 0.259491 15.2645 0.491221 15.3766 0.869594C15.4399 1.08141 15.4508 1.57384 15.4508 4.1446C15.4508 7.54995 15.4544 7.5065 15.1072 7.8541C14.6425 8.31756 13.5575 8.31756 13.0927 7.8541C12.7455 7.5065 12.7492 7.54995 12.7492 4.1446C12.7492 0.849679 12.7546 0.791747 13.0222 0.473117C13.2464 0.206989 13.487 0.11828 14.0276 0.103797C14.2935 0.0965551 14.5647 0.107417 14.6316 0.129142ZM23.5882 3.70648C23.8739 3.83683 24.2953 4.2496 24.4417 4.54289C24.5936 4.84884 24.6009 5.1892 24.4634 5.49334C24.3296 5.79206 20.1271 10.0139 19.7962 10.1823C19.3278 10.4231 18.8468 10.3054 18.3622 9.83105C17.8848 9.36397 17.7582 8.85706 18.0005 8.38455C18.1687 8.05324 22.3857 3.84588 22.6841 3.71192C22.9589 3.587 23.3206 3.58519 23.5882 3.70648ZM5.32421 3.73545C5.54663 3.83864 5.92638 4.19529 7.73831 6.01474C9.40377 7.68573 9.91191 8.22523 9.99328 8.40265C10.1307 8.70136 10.1289 9.04715 9.99148 9.34043C9.86489 9.61199 9.44898 10.0392 9.16869 10.1859C8.88478 10.3343 8.46345 10.3325 8.16869 10.1823C7.8667 10.0266 3.68949 5.84456 3.53397 5.54222C3.38388 5.24894 3.38207 4.82531 3.52855 4.5447C3.67683 4.26046 4.06019 3.8839 4.34952 3.73726C4.67321 3.57251 4.97158 3.57251 5.32421 3.73545ZM27.3025 12.8055C27.836 12.9739 28.1 13.3993 28.1 14.0855C28.0982 14.7861 27.8378 15.2061 27.3043 15.3654C27.0909 15.4288 26.6153 15.4397 24.0313 15.4397C21.3387 15.4397 20.9788 15.4306 20.7582 15.3582C20.4327 15.2532 20.1687 14.9889 20.0638 14.663C19.9083 14.1832 19.9861 13.5025 20.2338 13.1658C20.288 13.0934 20.4436 12.9721 20.5792 12.8979L20.8269 12.7603L23.9607 12.7494C26.4833 12.7422 27.1361 12.753 27.3025 12.8055ZM7.32782 12.7802C7.55025 12.8345 7.85766 13.021 7.96616 13.1676C8.2139 13.5025 8.29166 14.1832 8.13614 14.663C8.03126 14.9889 7.76724 15.2532 7.44175 15.3582C7.22113 15.4306 6.86128 15.4397 4.16869 15.4397C1.5846 15.4397 1.10902 15.4288 0.895634 15.3654C0.362181 15.2061 0.101784 14.7861 0.0999756 14.0855C0.0999756 13.3885 0.365797 12.9703 0.917334 12.8037C1.10359 12.7476 1.68768 12.7367 4.16146 12.7404C5.82149 12.744 7.24645 12.7621 7.32782 12.7802ZM19.7908 18.2186C20.0132 18.3218 20.3929 18.6785 22.2049 20.4979C23.8703 22.1689 24.3785 22.7084 24.4598 22.8858C24.5973 23.1845 24.5955 23.5303 24.458 23.8236C24.3314 24.0952 23.9155 24.5224 23.6352 24.6691C23.3513 24.8175 22.93 24.8157 22.6352 24.6654C22.3332 24.5097 18.156 20.3277 18.0005 20.0254C17.8504 19.7321 17.8486 19.3085 17.9951 19.0279C18.1434 18.7436 18.5267 18.3671 18.8161 18.2204C19.1398 18.0557 19.4381 18.0557 19.7908 18.2186ZM9.12167 18.1896C9.40739 18.32 9.82873 18.7328 9.9752 19.026C10.1271 19.332 10.1343 19.6724 9.9969 19.9765C9.86308 20.2752 5.66055 24.4971 5.32963 24.6654C4.86128 24.9062 4.38026 24.7885 3.89564 24.3142C3.41824 23.8471 3.29166 23.3402 3.53397 22.8677C3.70214 22.5364 7.91914 18.329 8.21752 18.1951C8.49238 18.0702 8.85404 18.0683 9.12167 18.1896ZM14.5611 20.02C14.7871 20.0779 15.0927 20.2644 15.1994 20.4092C15.449 20.7459 15.4508 20.7695 15.4508 24.0246C15.4508 26.617 15.4399 27.0932 15.3766 27.3068C15.2175 27.8409 14.7962 28.1016 14.1 28.1016C13.4038 28.1016 12.9824 27.8409 12.8233 27.3068C12.7112 26.923 12.713 21.1026 12.8269 20.7677C12.9354 20.449 13.0602 20.2969 13.3405 20.1449C13.5394 20.0363 13.6551 20.0091 13.9969 19.9964C14.2266 19.9874 14.4797 19.9982 14.5611 20.02Z" fill="#002134" stroke="#002134" stroke-width="0.2"/>
</svg>
