<svg width="21" height="23" viewBox="0 0 21 23" fill="none" xmlns="http://www.w3.org/2000/svg">
<path d="M19.5731 22.0851H1.90504C1.61217 22.0851 1.3313 21.9688 1.12421 21.7617C0.917122 21.5546 0.800781 21.2737 0.800781 20.9809V1.10426C0.800781 0.811389 0.917122 0.530517 1.12421 0.323429C1.3313 0.116341 1.61217 0 1.90504 0H19.5731C19.866 0 20.1469 0.116341 20.354 0.323429C20.561 0.530517 20.6774 0.811389 20.6774 1.10426V20.9809C20.6774 21.2737 20.561 21.5546 20.354 21.7617C20.1469 21.9688 19.866 22.0851 19.5731 22.0851ZM18.4689 19.8766V2.20851H3.00929V19.8766H18.4689ZM6.32206 5.52128H15.1561V7.72979H6.32206V5.52128ZM6.32206 9.9383H15.1561V12.1468H6.32206V9.9383ZM6.32206 14.3553H11.8433V16.5638H6.32206V14.3553Z" fill="#002134"/>
</svg>
