<svg width="50" height="50" viewBox="0 0 50 50" fill="none" xmlns="http://www.w3.org/2000/svg">
<rect width="50" height="50" rx="12" fill="#F1DFDA"/>
<rect x="0.5" y="0.5" width="49" height="49" rx="11.5" stroke="#002134" stroke-opacity="0.05"/>
<mask id="path-3-outside-1_1753_6499" maskUnits="userSpaceOnUse" x="12" y="13.5078" width="23" height="23" fill="black">
<rect fill="white" x="12" y="13.5078" width="23" height="23"/>
<path fill-rule="evenodd" clip-rule="evenodd" d="M23.6749 16.5076C19.6272 16.5076 16.3459 19.7889 16.3459 23.8366V30.6002C15.5868 30.697 15 31.3453 15 32.1307C15 32.9829 15.6908 33.6737 16.543 33.6737H30.815C31.6672 33.6737 32.358 32.9829 32.358 32.1307C32.358 31.3425 31.7669 30.6923 31.0038 30.5992V23.8366C31.0038 19.7889 27.7225 16.5076 23.6749 16.5076Z"/>
</mask>
<path d="M16.3459 30.6002L16.662 33.0801L18.8459 32.8018V30.6002H16.3459ZM31.0038 30.5992H28.5038V32.8127L30.7011 33.0808L31.0038 30.5992ZM16.3459 23.8366H18.8459C18.8459 21.1696 21.0079 19.0076 23.6749 19.0076V16.5076V14.0076C18.2465 14.0076 13.8459 18.4082 13.8459 23.8366H16.3459ZM16.3459 30.6002H18.8459V23.8366H16.3459H13.8459V30.6002H16.3459ZM15 32.1307H17.5C17.5 32.6198 17.1354 33.0198 16.662 33.0801L16.3459 30.6002L16.0298 28.1203C14.0382 28.3741 12.5 30.0708 12.5 32.1307H15ZM16.543 33.6737V31.1737C17.0715 31.1737 17.5 31.6021 17.5 32.1307H15H12.5C12.5 34.3636 14.3101 36.1737 16.543 36.1737V33.6737ZM30.815 33.6737V31.1737H16.543V33.6737V36.1737H30.815V33.6737ZM32.358 32.1307H29.858C29.858 31.6021 30.2865 31.1737 30.815 31.1737V33.6737V36.1737C33.0479 36.1737 34.858 34.3636 34.858 32.1307H32.358ZM31.0038 30.5992L30.7011 33.0808C30.2252 33.0227 29.858 32.6215 29.858 32.1307H32.358H34.858C34.858 30.0634 33.3086 28.3618 31.3065 28.1176L31.0038 30.5992ZM31.0038 23.8366H28.5038V30.5992H31.0038H33.5038V23.8366H31.0038ZM23.6749 16.5076V19.0076C26.3418 19.0076 28.5038 21.1696 28.5038 23.8366H31.0038H33.5038C33.5038 18.4082 29.1032 14.0076 23.6749 14.0076V16.5076Z" fill="#002134" mask="url(#path-3-outside-1_1753_6499)"/>
<path d="M21.6437 38.2891C22.9146 39.5331 24.9346 39.5719 26.2524 38.3776L26.3501 38.2891" stroke="#002134" stroke-width="2.3" stroke-linecap="round"/>
<circle cx="32.499" cy="17.5" r="7.5" fill="#BB2C30" stroke="#F1DFDA" stroke-width="4.5"/>
</svg>
