<svg width="17" height="16" viewBox="0 0 17 16" fill="none" xmlns="http://www.w3.org/2000/svg">
<path d="M7.66553 1.50635C7.86289 1.07521 7.96161 0.85964 8.09904 0.793256C8.21839 0.735581 8.35855 0.735581 8.4779 0.793256C8.61533 0.85964 8.71405 1.07521 8.91141 1.50635L10.4835 4.94041C10.5419 5.06786 10.571 5.13159 10.6162 5.18039C10.6561 5.22357 10.7049 5.25811 10.7594 5.28175C10.8211 5.30848 10.8923 5.31581 11.0349 5.33045L14.8749 5.72509C15.357 5.77463 15.598 5.7994 15.7053 5.90614C15.7985 5.99885 15.8418 6.12868 15.8224 6.25705C15.8 6.40481 15.62 6.56277 15.2599 6.87879L12.3914 9.39582C12.285 9.48921 12.2317 9.53594 12.198 9.5928C12.1682 9.64319 12.1495 9.69906 12.1433 9.75683C12.1362 9.82216 12.1511 9.89039 12.1808 10.0269L12.982 13.7049C13.0826 14.1667 13.1329 14.3975 13.0618 14.5298C13 14.6449 12.8866 14.7251 12.7552 14.7467C12.604 14.7716 12.394 14.6538 11.9741 14.4179L8.62922 12.5394C8.5051 12.4697 8.44303 12.4349 8.37705 12.4212C8.31865 12.4092 8.25829 12.4092 8.19989 12.4212C8.13391 12.4349 8.07184 12.4697 7.94772 12.5394L4.60287 14.4179C4.18294 14.6538 3.97297 14.7716 3.82173 14.7467C3.69034 14.7251 3.57693 14.6449 3.51517 14.5298C3.44408 14.3975 3.49437 14.1667 3.59496 13.7049L4.39612 10.0269C4.42586 9.89039 4.44072 9.82216 4.43366 9.75683C4.42742 9.69906 4.40877 9.64319 4.37893 9.5928C4.34522 9.53594 4.29198 9.48921 4.18553 9.39582L1.31713 6.87879C0.957012 6.56277 0.776952 6.40481 0.754564 6.25705C0.735127 6.12868 0.778443 5.99885 0.871658 5.90614C0.978973 5.7994 1.22002 5.77463 1.70212 5.72509L5.54212 5.33045C5.68464 5.31581 5.7559 5.30848 5.81752 5.28175C5.87204 5.25811 5.92085 5.22357 5.9608 5.18039C6.00594 5.13159 6.03511 5.06786 6.09347 4.94041L7.66553 1.50635Z" stroke="#002134" stroke-width="1.5" stroke-linecap="round" stroke-linejoin="round"/>
</svg>
