<svg width="53" height="53" viewBox="0 0 53 53" fill="none" xmlns="http://www.w3.org/2000/svg">
<rect x="0.976562" y="0.710938" width="51.5781" height="51.5781" rx="12" fill="#F4E7DB"/>
<path d="M26.3105 12C18.7429 12 12.6113 18.1357 12.6113 25.6992C12.6113 33.2669 18.747 39.3984 26.3105 39.3984C33.874 39.3984 40.0098 33.2669 40.0098 25.6992C40.0098 18.1316 33.874 12 26.3105 12ZM26.3105 36.3555C20.4329 36.3555 15.6542 31.5769 15.6542 25.6992C15.6542 19.8216 20.4329 15.0429 26.3105 15.0429C32.1882 15.0429 36.9669 19.8216 36.9669 25.6992C36.9669 31.5769 32.184 36.3555 26.3105 36.3555Z" fill="#002134"/>
<path d="M21.4668 20.8516L31.5305 30.9153" stroke="#002134" stroke-width="3"/>
<path d="M31.5305 20.8516L21.4668 30.9153" stroke="#002134" stroke-width="3"/>
</svg>
