<svg width="24" height="24" viewBox="0 0 24 24" fill="none" xmlns="http://www.w3.org/2000/svg">
<path fill-rule="evenodd" clip-rule="evenodd" d="M0.727661 17.1227C0.727661 16.1273 1.53464 15.3203 2.53009 15.3203H5.23374C6.2292 15.3203 7.03618 16.1273 7.03618 17.1227V21.6288C7.03618 22.6243 6.2292 23.4313 5.23374 23.4313H2.53009C1.53464 23.4313 0.727661 22.6243 0.727661 21.6288V17.1227ZM5.23374 17.4832C5.23374 17.2842 5.07234 17.1227 4.87326 17.1227H2.89058C2.69149 17.1227 2.53009 17.2842 2.53009 17.4832V21.2683C2.53009 21.4674 2.69149 21.6288 2.89058 21.6288H4.87326C5.07234 21.6288 5.23374 21.4674 5.23374 21.2683V17.4832Z" fill="#002134"/>
<path fill-rule="evenodd" clip-rule="evenodd" d="M8.83899 1.80243C8.83899 0.806976 9.64594 0 10.6414 0H13.3451C14.3406 0 15.1475 0.806976 15.1475 1.80243V21.6292C15.1475 22.6247 14.3406 23.4316 13.3451 23.4316H10.6414C9.64594 23.4316 8.83899 22.6247 8.83899 21.6292V1.80243ZM13.3451 2.16292C13.3451 1.96383 13.1837 1.80243 12.9846 1.80243H11.0019C10.8028 1.80243 10.6414 1.96383 10.6414 2.16292V21.2687C10.6414 21.4678 10.8028 21.6292 11.0019 21.6292H12.9846C13.1837 21.6292 13.3451 21.4678 13.3451 21.2687V2.16292Z" fill="#002134"/>
<path fill-rule="evenodd" clip-rule="evenodd" d="M16.9497 9.01337C16.9497 8.01791 17.7567 7.21094 18.7521 7.21094H21.4558C22.4513 7.21094 23.2582 8.01791 23.2582 9.01337V21.6304C23.2582 22.6259 22.4513 23.4328 21.4558 23.4328H18.7521C17.7567 23.4328 16.9497 22.6259 16.9497 21.6304V9.01337ZM21.4558 9.37386C21.4558 9.17478 21.2944 9.01337 21.0953 9.01337H19.1126C18.9135 9.01337 18.7521 9.17478 18.7521 9.37386V21.2699C18.7521 21.469 18.9135 21.6304 19.1126 21.6304H21.0953C21.2944 21.6304 21.4558 21.469 21.4558 21.2699V9.37386Z" fill="#002134"/>
</svg>
