<svg width="22" height="25" viewBox="0 0 22 25" fill="none" xmlns="http://www.w3.org/2000/svg">
<path d="M10.9381 8.02347V12.8422M20.5756 10.6316C20.5756 18.5444 14.5906 22.092 12.0534 23.2404L12.0501 23.2418C11.7833 23.3626 11.6496 23.4232 11.3464 23.4752C11.1543 23.5083 10.7231 23.5083 10.531 23.4752C10.2266 23.423 10.0914 23.3622 9.82255 23.2404C7.28522 22.092 1.30054 18.5444 1.30054 10.6316V5.85526C1.30054 4.50587 1.30054 3.83068 1.56315 3.31529C1.79414 2.86192 2.16246 2.4936 2.61582 2.26261C3.13122 2 3.80641 2 5.1558 2H16.7209C18.0702 2 18.744 2 19.2594 2.26261C19.7127 2.4936 20.0823 2.86192 20.3133 3.31529C20.5756 3.83017 20.5756 4.50455 20.5756 5.8513V10.6316ZM10.9981 16.4563V16.5768L10.8781 16.577V16.4563H10.9981Z" stroke="#002134" stroke-width="2.2" stroke-linecap="round" stroke-linejoin="round"/>
</svg>
