<svg width="23" height="31" viewBox="0 0 23 31" fill="none" xmlns="http://www.w3.org/2000/svg">
<path fill-rule="evenodd" clip-rule="evenodd" d="M11.4375 3.15122C8.38096 3.15122 5.90317 5.629 5.90317 8.68552C5.90317 11.742 8.38096 14.2198 11.4375 14.2198C14.494 14.2198 16.9718 11.742 16.9718 8.68552C16.9718 5.629 14.494 3.15122 11.4375 3.15122ZM3.68945 8.68552C3.68945 4.4064 7.15835 0.9375 11.4375 0.9375C15.7166 0.9375 19.1855 4.4064 19.1855 8.68552C19.1855 12.9646 15.7166 16.4335 11.4375 16.4335C7.15835 16.4335 3.68945 12.9646 3.68945 8.68552Z" fill="#002134"/>
<path fill-rule="evenodd" clip-rule="evenodd" d="M0 26.4999C0 22.1626 3.51611 18.6465 7.85343 18.6465H15.0217C19.359 18.6465 22.8751 22.1626 22.8751 26.4999C22.8751 29.9058 20.1141 30.999 16.7083 30.999H6.16678C2.76096 30.999 0 29.9058 0 26.4999ZM7.85343 20.8602C4.7387 20.8602 2.21372 23.3852 2.21372 26.4999C2.21372 28.6832 3.98357 28.7853 6.16678 28.7853H16.7083C18.8916 28.7853 20.6614 28.6832 20.6614 26.4999C20.6614 23.3852 18.1364 20.8602 15.0217 20.8602H7.85343Z" fill="#002134"/>
</svg>
