<svg width="19" height="18" viewBox="0 0 19 18" fill="none" xmlns="http://www.w3.org/2000/svg">
<path d="M1 17.0032H17.4283M1 17.0032V12.8962L9.21414 4.68205M1 17.0032H5.10707L13.3212 8.7891M9.21414 4.68205L12.1595 1.7366L12.1614 1.73485C12.5667 1.3294 12.7698 1.12632 13.0039 1.05026C13.2102 0.983248 13.4323 0.983248 13.6386 1.05026C13.8725 1.12627 14.0754 1.32912 14.4802 1.73399L16.2666 3.52036C16.6732 3.92698 16.8766 4.13038 16.9528 4.36483C17.0198 4.57104 17.0197 4.79317 16.9528 4.9994C16.8767 5.23367 16.6736 5.43676 16.2675 5.8428L16.2666 5.84367L13.3212 8.7891M9.21414 4.68205L13.3212 8.7891" stroke="#002134" stroke-width="1.8" stroke-linecap="round" stroke-linejoin="round"/>
</svg>
