<svg width="44" height="44" viewBox="0 0 44 44" fill="none" xmlns="http://www.w3.org/2000/svg">
<mask id="path-1-outside-1_1392_8010" maskUnits="userSpaceOnUse" x="9" y="12.5078" width="23" height="23" fill="black">
<rect fill="white" x="9" y="12.5078" width="23" height="23"/>
<path fill-rule="evenodd" clip-rule="evenodd" d="M20.6749 15.5076C16.6272 15.5076 13.3459 18.7889 13.3459 22.8366V29.6002C12.5868 29.697 12 30.3453 12 31.1307C12 31.9829 12.6908 32.6737 13.543 32.6737H27.815C28.6672 32.6737 29.358 31.9829 29.358 31.1307C29.358 30.3425 28.7669 29.6923 28.0038 29.5992V22.8366C28.0038 18.7889 24.7225 15.5076 20.6749 15.5076Z"/>
</mask>
<path d="M13.3459 29.6002L13.662 32.0801L15.8459 31.8018V29.6002H13.3459ZM28.0038 29.5992H25.5038V31.8127L27.7011 32.0808L28.0038 29.5992ZM13.3459 22.8366H15.8459C15.8459 20.1696 18.0079 18.0076 20.6749 18.0076V15.5076V13.0076C15.2465 13.0076 10.8459 17.4082 10.8459 22.8366H13.3459ZM13.3459 29.6002H15.8459V22.8366H13.3459H10.8459V29.6002H13.3459ZM12 31.1307H14.5C14.5 31.6198 14.1354 32.0198 13.662 32.0801L13.3459 29.6002L13.0298 27.1203C11.0382 27.3741 9.5 29.0708 9.5 31.1307H12ZM13.543 32.6737V30.1737C14.0715 30.1737 14.5 30.6021 14.5 31.1307H12H9.5C9.5 33.3636 11.3101 35.1737 13.543 35.1737V32.6737ZM27.815 32.6737V30.1737H13.543V32.6737V35.1737H27.815V32.6737ZM29.358 31.1307H26.858C26.858 30.6021 27.2865 30.1737 27.815 30.1737V32.6737V35.1737C30.0479 35.1737 31.858 33.3636 31.858 31.1307H29.358ZM28.0038 29.5992L27.7011 32.0808C27.2252 32.0227 26.858 31.6215 26.858 31.1307H29.358H31.858C31.858 29.0634 30.3086 27.3618 28.3065 27.1176L28.0038 29.5992ZM28.0038 22.8366H25.5038V29.5992H28.0038H30.5038V22.8366H28.0038ZM20.6749 15.5076V18.0076C23.3418 18.0076 25.5038 20.1696 25.5038 22.8366H28.0038H30.5038C30.5038 17.4082 26.1032 13.0076 20.6749 13.0076V15.5076Z" fill="#002134" mask="url(#path-1-outside-1_1392_8010)"/>
<path d="M18.6445 37.2852C19.9155 38.5292 21.9355 38.568 23.2533 37.3737L23.3509 37.2852" stroke="#002134" stroke-width="2.3" stroke-linecap="round"/>
<circle cx="29.5" cy="16.5" r="7.5" fill="#BB2C30" stroke="#F1DFDA" stroke-width="4.5"/>
</svg>
