<svg width="52" height="53" viewBox="0 0 52 53" fill="none" xmlns="http://www.w3.org/2000/svg">
<rect x="0.365234" y="0.710938" width="51.5781" height="51.5781" rx="12" fill="#F4E7DB"/>
<path d="M26 13C18.8186 13 13 18.8225 13 26C13 33.1814 18.8225 39 26 39C33.1775 39 39 33.1814 39 26C39 18.8186 33.1775 13 26 13ZM26 36.1124C20.4224 36.1124 15.8876 31.5776 15.8876 26C15.8876 20.4224 20.4224 15.8876 26 15.8876C31.5776 15.8876 36.1124 20.4224 36.1124 26C36.1124 31.5776 31.5737 36.1124 26 36.1124Z" fill="#002134"/>
<path d="M25.0319 27.7679L21.1687 24.3075L19.241 26.4564L25.2887 31.876L32.8809 23.1383L30.7004 21.2422L25.0319 27.7679Z" fill="#002134"/>
</svg>
