<svg width="17" height="17" viewBox="0 0 17 17" fill="none" xmlns="http://www.w3.org/2000/svg">
<path d="M6.27623 2.60521H4.59623C3.55079 2.60521 3.02769 2.60521 2.62839 2.80867C2.27715 2.98762 1.99179 3.27298 1.81283 3.62422C1.60937 4.02352 1.60938 4.54663 1.60938 5.59206V12.6854C1.60938 13.7308 1.60937 14.2533 1.81283 14.6526C1.99179 15.0038 2.27715 15.2897 2.62839 15.4686C3.0273 15.6719 3.54977 15.6719 4.59316 15.6719H11.6923C12.7356 15.6719 13.2574 15.6719 13.6563 15.4686C14.0075 15.2897 14.2938 15.0035 14.4728 14.6523C14.676 14.2534 14.676 13.7315 14.676 12.6881V11.0052M15.6094 6.33854V1.67188M15.6094 1.67188H10.9427M15.6094 1.67188L9.07604 8.20521" stroke="#002134" stroke-width="2.2" stroke-linecap="round" stroke-linejoin="round"/>
</svg>
