<svg width="24" height="21" viewBox="0 0 24 21" fill="none" xmlns="http://www.w3.org/2000/svg">
<path d="M21.6779 14.75V5.4C21.6779 4.20989 21.6779 3.61483 21.449 3.16027C21.2477 2.76042 20.9264 2.43534 20.5313 2.23161C20.0821 2 19.494 2 18.3179 2H6.1379C4.96179 2 4.37374 2 3.92453 2.23161C3.52938 2.43534 3.20812 2.76042 3.00679 3.16027C2.77791 3.61483 2.77791 4.20989 2.77791 5.4V14.75M4.52791 19H19.9279C20.5789 19 20.9044 19 21.1714 18.9276C21.8961 18.7311 22.4621 18.1583 22.6564 17.4249C22.7279 17.1548 22.7279 16.8254 22.7279 16.1666C22.7279 15.8373 22.7279 15.6726 22.6921 15.5375C22.5951 15.1709 22.312 14.8844 21.9496 14.7862C21.8162 14.75 21.6534 14.75 21.3279 14.75H3.1279C2.80241 14.75 2.63967 14.75 2.50614 14.7862C2.1438 14.8844 1.86077 15.1709 1.76368 15.5375C1.72791 15.6726 1.72791 15.8373 1.72791 16.1666C1.72791 16.8254 1.72791 17.1548 1.79946 17.4249C1.99364 18.1583 2.55969 18.7311 3.28438 18.9276C3.55143 19 3.87693 19 4.52791 19Z" stroke="#002134" stroke-width="2.2" stroke-linecap="round" stroke-linejoin="round"/>
</svg>
