<svg width="23" height="23" viewBox="0 0 23 23" fill="none" xmlns="http://www.w3.org/2000/svg">
<path d="M11.4782 12.4252C13.054 12.4252 14.3314 11.1477 14.3314 9.57196C14.3314 7.99617 13.054 6.71875 11.4782 6.71875C9.90242 6.71875 8.625 7.99617 8.625 9.57196C8.625 11.1477 9.90242 12.4252 11.4782 12.4252Z" stroke="#002134" stroke-width="2" stroke-miterlimit="10"/>
<path d="M11.4727 6.70408V4.80859" stroke="#002134" stroke-width="2" stroke-miterlimit="10"/>
<path d="M11.4727 6.70408V4.80859" stroke="#002134" stroke-width="2" stroke-miterlimit="10"/>
<path d="M11.4727 14.3273V12.4219" stroke="#002134" stroke-width="2" stroke-miterlimit="10"/>
<path d="M9.00546 8.14522L7.35938 7.1875" stroke="#002134" stroke-width="2" stroke-miterlimit="10"/>
<path d="M9.00546 8.14522L7.35938 7.1875" stroke="#002134" stroke-width="2" stroke-miterlimit="10"/>
<path d="M15.5953 11.9438L13.9492 10.9961" stroke="#002134" stroke-width="2" stroke-miterlimit="10"/>
<path d="M13.9492 8.14522L15.5953 7.1875" stroke="#002134" stroke-width="2" stroke-miterlimit="10"/>
<path d="M13.9492 8.14522L15.5953 7.1875" stroke="#002134" stroke-width="2" stroke-miterlimit="10"/>
<path d="M7.35938 11.9438L9.00546 10.9961" stroke="#002134" stroke-width="2" stroke-miterlimit="10"/>
<path d="M1 4.81093V14.3283C1 15.339 1.40151 16.3083 2.11619 17.023C2.83088 17.7377 3.80021 18.1392 4.81093 18.1392H6.71639V20.9924L12.4727 18.1392H18.1891C19.1998 18.1392 20.1691 17.7377 20.8838 17.023C21.5985 16.3083 22 15.339 22 14.3283V4.81093C22 3.80021 21.5985 2.83088 20.8838 2.11619C20.1691 1.40151 19.1998 1 18.1891 1H4.81093C3.80021 1 2.83088 1.40151 2.11619 2.11619C1.40151 2.83088 1 3.80021 1 4.81093Z" stroke="#002134" stroke-width="2" stroke-miterlimit="10"/>
</svg>
