<svg width="23" height="23" viewBox="0 0 23 23" fill="none" xmlns="http://www.w3.org/2000/svg">
<path d="M3.33333 7.98101V17.327M8.58333 7.98101V17.327M14.4167 7.98101V17.327M19.6667 7.98101V17.327M1 19.1962V20.1308C1 20.7851 1 21.1122 1.12715 21.3621C1.23901 21.582 1.41749 21.7607 1.63701 21.8727C1.88657 22 2.21327 22 2.86667 22H20.1333C20.7868 22 21.1134 22 21.363 21.8727C21.5826 21.7607 21.761 21.582 21.8728 21.3621C22 21.1122 22 20.7851 22 20.1308V19.1962C22 18.542 22 18.2147 21.8728 17.9649C21.761 17.7451 21.5826 17.5664 21.363 17.4543C21.1134 17.327 20.7868 17.327 20.1333 17.327H2.86667C2.21327 17.327 1.88657 17.327 1.63701 17.4543C1.41749 17.5664 1.23901 17.7451 1.12715 17.9649C1 18.2147 1 18.542 1 19.1962ZM11.095 1.06161L2.46173 2.98274C1.94016 3.09879 1.67937 3.15683 1.4847 3.29725C1.31301 3.42112 1.17819 3.58943 1.09468 3.78415C1 4.00489 1 4.27241 1 4.80742V6.11181C1 6.76608 1 7.09323 1.12715 7.34313C1.23901 7.56295 1.41749 7.74167 1.63701 7.85368C1.88657 7.98101 2.21327 7.98101 2.86667 7.98101H20.1333C20.7868 7.98101 21.1134 7.98101 21.363 7.85368C21.5826 7.74167 21.761 7.56295 21.8728 7.34313C22 7.09323 22 6.76608 22 6.11181V4.80743C22 4.27241 22 4.0049 21.9053 3.78415C21.8218 3.58943 21.687 3.42112 21.5152 3.29725C21.3206 3.15683 21.0599 3.09879 20.5383 2.98274L11.9049 1.06161C11.7539 1.02799 11.6783 1.01117 11.602 1.00447C11.5341 0.99851 11.4659 0.99851 11.398 1.00447C11.3217 1.01117 11.2461 1.02799 11.095 1.06161Z" stroke="#002134" stroke-width="1.8" stroke-linecap="round" stroke-linejoin="round"/>
</svg>
