<svg width="23" height="23" viewBox="0 0 23 23" fill="none" xmlns="http://www.w3.org/2000/svg">
<path d="M21.8381 4.32755C21.7572 4.07849 21.5419 3.89698 21.2828 3.85937L18.9281 3.51721L17.8751 1.38349C17.7593 1.14862 17.5201 1 17.2582 1C16.9964 1 16.7572 1.14866 16.6413 1.38345L15.5883 3.51717L13.2336 3.85933C12.9745 3.89694 12.7592 4.07845 12.6782 4.32751C12.5973 4.57661 12.6648 4.84999 12.8523 5.03273L14.5561 6.69364L14.1539 9.03877C14.1096 9.2969 14.2157 9.55772 14.4276 9.71168C14.6393 9.86551 14.9202 9.88594 15.1521 9.76405L17.2581 8.65675L19.3643 9.76405C19.5959 9.88581 19.8769 9.86563 20.0888 9.71164C20.3006 9.55777 20.4067 9.2969 20.3624 9.03877L19.9602 6.69364L21.664 5.03278C21.8516 4.85003 21.9191 4.57665 21.8381 4.32755ZM18.7409 5.96085C18.5788 6.11891 18.5048 6.3466 18.5431 6.56979L18.7708 7.89748L17.5784 7.27058C17.4781 7.21792 17.3682 7.19155 17.2582 7.19155C17.1483 7.19155 17.0383 7.21788 16.9381 7.27058L15.7457 7.89748L15.9734 6.56979C16.0117 6.3466 15.9377 6.11891 15.7756 5.96085L14.8109 5.02051L16.1441 4.82678C16.3682 4.79421 16.5619 4.65351 16.6621 4.45046L17.2582 3.2424L17.8544 4.45046C17.9547 4.65351 18.1484 4.79421 18.3724 4.82678L19.7055 5.02051L18.7409 5.96085Z" fill="#002134" stroke="#002134" stroke-width="0.5"/>
<path d="M21.4566 13.2803C21.1976 13.124 20.8667 13.1552 20.6415 13.3573C19.1556 14.6912 17.2928 15.3531 15.4336 15.3529C13.4368 15.3527 11.4442 14.5891 9.92955 13.0745C7.0046 10.1495 6.88034 5.44419 9.64669 2.36238C9.84879 2.13723 9.88009 1.80644 9.72375 1.54733C9.56738 1.28826 9.26004 1.16191 8.96669 1.23569C7.11578 1.70202 5.43019 2.65577 4.09208 3.99388C-0.0305091 8.11647 -0.0308779 14.789 4.09208 18.912C8.21004 23.03 14.8872 23.0349 19.0101 18.912C20.3481 17.5739 21.3019 15.8883 21.7682 14.0374C21.8421 13.7439 21.7157 13.4366 21.4566 13.2803ZM18.0372 17.939C14.4607 21.5154 8.64143 21.5154 5.06494 17.939C1.48009 14.3541 1.47976 8.55197 5.06494 4.96674C5.72719 4.30458 6.48774 3.75056 7.31735 3.32146C5.49995 6.79337 6.06738 11.1581 8.9566 14.0473C11.8458 16.9365 16.2105 17.5038 19.6824 15.6866C19.2533 16.5162 18.6993 17.2768 18.0372 17.939Z" fill="#002134" stroke="#002134" stroke-width="0.5"/>
</svg>
