<svg width="31" height="30" viewBox="0 0 31 30" fill="none" xmlns="http://www.w3.org/2000/svg">
<path d="M15.1235 16.3525C17.1722 16.3525 18.833 14.6917 18.833 12.6431C18.833 10.5944 17.1722 8.93359 15.1235 8.93359C13.0748 8.93359 11.4141 10.5944 11.4141 12.6431C11.4141 14.6917 13.0748 16.3525 15.1235 16.3525Z" stroke="#F59174" stroke-width="3" stroke-miterlimit="10"/>
<path d="M15.1211 8.92136V6.45703" stroke="#F59174" stroke-width="3" stroke-miterlimit="10"/>
<path d="M15.1211 8.92136V6.45703" stroke="#F59174" stroke-width="3" stroke-miterlimit="10"/>
<path d="M15.1211 18.8289V16.3516" stroke="#F59174" stroke-width="3" stroke-miterlimit="10"/>
<path d="M11.9096 10.7881L9.76953 9.54297" stroke="#F59174" stroke-width="3" stroke-miterlimit="10"/>
<path d="M11.9096 10.7881L9.76953 9.54297" stroke="#F59174" stroke-width="3" stroke-miterlimit="10"/>
<path d="M20.476 15.7322L18.3359 14.5" stroke="#F59174" stroke-width="3" stroke-miterlimit="10"/>
<path d="M18.3359 10.7881L20.476 9.54297" stroke="#F59174" stroke-width="3" stroke-miterlimit="10"/>
<path d="M18.3359 10.7881L20.476 9.54297" stroke="#F59174" stroke-width="3" stroke-miterlimit="10"/>
<path d="M9.76953 15.7322L11.9096 14.5" stroke="#F59174" stroke-width="3" stroke-miterlimit="10"/>
<path d="M1.5 6.4546V18.8281C1.5 20.1422 2.022 21.4024 2.95117 22.3316C3.88034 23.2607 5.14056 23.7827 6.4546 23.7827H8.9319V27.4922L16.4157 23.7827H23.8476C25.1616 23.7827 26.4218 23.2607 27.351 22.3316C28.2802 21.4024 28.8022 20.1422 28.8022 18.8281V6.4546C28.8022 5.14056 28.2802 3.88034 27.351 2.95117C26.4218 2.022 25.1616 1.5 23.8476 1.5H6.4546C5.14056 1.5 3.88034 2.022 2.95117 2.95117C2.022 3.88034 1.5 5.14056 1.5 6.4546Z" stroke="#F59174" stroke-width="3" stroke-miterlimit="10"/>
</svg>
