<svg width="30" height="29" viewBox="0 0 30 29" fill="none" xmlns="http://www.w3.org/2000/svg">
<path d="M7.2992 17.0437H22.0462M7.2992 17.0437V13.5166C7.2992 12.6935 7.2992 12.282 7.45993 11.9677C7.60133 11.6911 7.82693 11.4663 8.10441 11.3255C8.41986 11.1653 8.83282 11.1653 9.65873 11.1653H19.6867C20.5127 11.1653 20.9256 11.1653 21.2411 11.3255C21.5186 11.4663 21.7441 11.6911 21.8855 11.9677C22.0462 12.282 22.0462 12.6935 22.0462 13.5166V17.0437M7.2992 17.0437V22.9221V27.3309M22.0462 17.0437V22.9221V27.3309M24.0321 5.54155L17.8383 2.45539C16.6776 1.87703 16.0973 1.58786 15.4885 1.47404C14.9494 1.37324 14.3961 1.37324 13.8569 1.47404C13.2482 1.58786 12.6679 1.87703 11.5071 2.45539L5.31332 5.54155C3.89292 6.24929 3.18272 6.60317 2.66384 7.13111C2.20499 7.59799 1.85601 8.16067 1.64218 8.77844C1.40039 9.47704 1.40039 10.2683 1.40039 11.8509V24.9795C1.40039 25.8025 1.40039 26.214 1.56112 26.5285C1.70251 26.8049 1.92811 27.0298 2.20559 27.1707C2.52105 27.3309 2.93401 27.3309 3.75992 27.3309H25.5855C26.4115 27.3309 26.8244 27.3309 27.1399 27.1707C27.4174 27.0298 27.6429 26.8049 27.7843 26.5285C27.9451 26.214 27.9451 25.8025 27.9451 24.9795V11.8509C27.9451 10.2683 27.9451 9.47704 27.7032 8.77844C27.4894 8.16067 27.1405 7.59799 26.6817 7.13111C26.1627 6.60317 25.4525 6.24929 24.0321 5.54155Z" stroke="#F59174" stroke-width="2.8" stroke-linecap="round" stroke-linejoin="round"/>
</svg>
